<svg width="34" height="28" viewBox="0 0 34 28" fill="none" xmlns="http://www.w3.org/2000/svg">
<path d="M2.96149 12.3232C2.96149 12.3232 17.1146 6.61552 22.0231 4.60585C23.9046 3.80198 30.2858 1.22948 30.2858 1.22948C30.2858 1.22948 33.2309 0.104231 32.9855 2.83721C32.9035 3.96267 32.249 7.90167 31.5946 12.1623C30.6129 18.1915 29.5494 24.7831 29.5494 24.7831C29.5494 24.7831 29.3859 26.6321 27.9952 26.9537C26.6043 27.2753 24.3137 25.8282 23.9046 25.5066C23.5775 25.2654 17.769 21.648 15.6421 19.8796C15.0694 19.3973 14.4149 18.4325 15.7239 17.3071C18.6689 14.6544 22.1868 11.3584 24.3137 9.26837C25.2953 8.3036 26.2772 6.05268 22.1868 8.78588C16.3783 12.7249 10.6516 16.4228 10.6516 16.4228C10.6516 16.4228 9.34289 17.2267 6.88863 16.5032C4.43436 15.7797 1.57101 14.8151 1.57101 14.8151C1.57101 14.8151 -0.392234 13.6091 2.96193 12.3232H2.96149Z" stroke="#5A3E16" stroke-width="2"/>
</svg>
