<svg width="25" height="25" viewBox="0 0 25 25" fill="none" xmlns="http://www.w3.org/2000/svg">
<path d="M0 25L1.79514 18.3365C0.347405 15.7408 -0.112556 12.7118 0.499664 9.8053C1.11188 6.89883 2.75522 4.30988 5.12811 2.51352C7.501 0.717167 10.4443 -0.166099 13.4179 0.0258059C16.3914 0.217711 19.1958 1.47191 21.3165 3.55827C23.4371 5.64462 24.7317 8.42317 24.9627 11.3841C25.1937 14.3449 24.3457 17.2896 22.5741 19.6776C20.8026 22.0655 18.2264 23.7367 15.3183 24.3845C12.4103 25.0322 9.36537 24.613 6.74238 23.2038L0 25ZM7.06749 20.7103L7.48447 20.9568C9.38436 22.0792 11.6034 22.5436 13.7958 22.2778C15.9882 22.012 18.0307 21.0308 19.6052 19.4872C21.1797 17.9436 22.1976 15.9243 22.5003 13.7439C22.803 11.5635 22.3735 9.34456 21.2788 7.43284C20.1841 5.52112 18.4856 4.02402 16.448 3.17483C14.4104 2.32565 12.1482 2.17208 10.014 2.73806C7.87966 3.30404 5.99317 4.55777 4.64846 6.30389C3.30375 8.05 2.57635 10.1904 2.57963 12.3916C2.57785 14.2167 3.08429 16.0065 4.0426 17.5617L4.3041 17.9914L3.30052 21.7105L7.06749 20.7103Z" fill="#5A3E16"/>
<path fill-rule="evenodd" clip-rule="evenodd" d="M17.1889 14.1025C16.9444 13.906 16.6582 13.7677 16.352 13.6981C16.0458 13.6285 15.7277 13.6295 15.422 13.701C14.9626 13.8911 14.6658 14.6096 14.3689 14.9689C14.3063 15.055 14.2144 15.1154 14.1103 15.1387C14.0062 15.1621 13.8971 15.1467 13.8035 15.0956C12.1217 14.4391 10.712 13.2352 9.80335 11.6794C9.72584 11.5823 9.68917 11.459 9.70103 11.3355C9.71289 11.212 9.77238 11.0979 9.86695 11.0173C10.198 10.6906 10.4411 10.286 10.5737 9.84095C10.6031 9.35001 10.4903 8.86098 10.2486 8.43219C10.0617 7.83104 9.70615 7.29576 9.22381 6.88959C8.97504 6.77808 8.6992 6.74069 8.42958 6.78193C8.15996 6.82318 7.90807 6.9413 7.7043 7.12204C7.35055 7.42622 7.06977 7.80561 6.88263 8.23228C6.69549 8.65894 6.60676 9.12201 6.62298 9.58737C6.62407 9.84871 6.6573 10.1089 6.72192 10.3622C6.88603 10.9707 7.13841 11.5521 7.47107 12.0879C7.71108 12.4984 7.97296 12.8958 8.25557 13.2783C9.17402 14.5349 10.3285 15.6019 11.655 16.4199C12.3207 16.8356 13.0321 17.1735 13.7753 17.4271C14.5473 17.7759 15.3996 17.9098 16.2418 17.8146C16.7217 17.7422 17.1763 17.5533 17.5658 17.2647C17.9552 16.9761 18.2675 16.5964 18.4752 16.1593C18.5972 15.8952 18.6342 15.5999 18.5812 15.314C18.454 14.7294 17.6695 14.3842 17.1889 14.1025Z" fill="#5A3E16"/>
</svg>
