<svg width="30" height="24" viewBox="0 0 30 24" fill="none" xmlns="http://www.w3.org/2000/svg">
<path d="M28.8018 20.2215C28.2534 21.4818 26.8387 22.6231 25.5102 22.8752C25.3742 22.901 22.1276 23.5 15.0089 23.5H14.9902C7.87243 23.5 4.62296 22.901 4.48795 22.8761C3.15947 22.6231 1.7438 21.4817 1.19441 20.2206C1.14566 20.1085 0 17.4117 0 12C0 6.58829 1.14566 3.89058 1.19441 3.77846C1.7438 2.51729 3.15947 1.37688 4.48795 1.12483C4.62296 1.09896 7.87243 0.5 14.9902 0.5C22.1276 0.5 25.3742 1.09896 25.5092 1.12388C26.8386 1.37688 28.2534 2.51729 28.8028 3.7775C28.8515 3.89058 30 6.58829 30 12C30 17.4117 28.8515 20.1085 28.8018 20.2215ZM27.0871 4.55375C26.7946 3.88196 25.8777 3.14404 25.167 3.00892C25.137 3.00317 21.9241 2.41667 15.0089 2.41667C8.07588 2.41667 4.86015 3.00317 4.82921 3.00892C4.11857 3.14404 3.2026 3.88196 2.90915 4.55758C2.89978 4.57771 1.876 7.04446 1.876 12C1.876 16.9546 2.89978 19.4213 2.91103 19.4463C3.2026 20.118 4.11857 20.856 4.83015 20.9911C4.86015 20.9968 8.07588 21.5833 14.9902 21.5833H15.0089C21.9241 21.5833 25.137 20.9968 25.168 20.9911C25.8786 20.856 26.7946 20.118 27.088 19.4424C27.0974 19.4213 28.1231 16.9546 28.1231 12C28.1231 7.04542 27.0974 4.57771 27.0871 4.55375ZM12.6941 17.6024C12.5423 17.7011 12.3679 17.75 12.1944 17.75C12.0388 17.75 11.8832 17.7107 11.7416 17.6302C11.4425 17.4615 11.2569 17.1405 11.2569 16.7917V7.20833C11.2569 6.86046 11.4407 6.54037 11.7379 6.37171C12.0351 6.20208 12.3998 6.20975 12.6876 6.39279L20.2056 11.1423C20.4803 11.3157 20.6491 11.6224 20.65 11.953C20.651 12.2837 20.486 12.5922 20.2122 12.7676L12.6941 17.6024ZM13.1329 8.92758V15.0561L17.9406 11.9645L13.1329 8.92758Z" fill="#5A3E16"/>
</svg>
